<svg xmlns="http://www.w3.org/2000/svg" xmlns:xlink="http://www.w3.org/1999/xlink" version="1.1" x="0px" y="0px" viewBox="0 0 100 125" enable-background="new 0 0 100 100" xml:space="preserve"><g><path d="M42.598,36.677l-7.653,1.39l-1.767-7.612L0.74,65.283l14.463,13.479l31.019-33.299L42.598,36.677z M15.048,74.348   l-9.898-9.223l3.075-3.298l6.982,6.501l2.125-2.284l-6.982-6.499l2.129-2.287l3.685,3.43l2.126-2.284l-3.682-3.428l2.127-2.282   l6.98,6.5l2.125-2.284l-6.98-6.501l2.129-2.289l3.682,3.434l2.125-2.289l-3.68-3.429l2.127-2.285l6.983,6.506l2.125-2.287   l-6.981-6.503l4.091-4.39l1.112,4.796l8.1-1.475l1.896,4.603L15.048,74.348z"/><path d="M71.51,28.801l-10.735,2.312l0.422,5.064l-7.463,1.758L83.57,79.651l16.07-11.514L71.51,28.801z M58.98,39.906l5.549-1.306   l-0.418-5.013l6.053-1.303l2.302,3.219l-4.062,2.912l1.816,2.539l4.062-2.911l1.815,2.538l-7.727,5.538l1.816,2.537l7.727-5.536   l1.816,2.541l-4.058,2.907l1.816,2.542l4.056-2.91l1.819,2.547l-7.721,5.528l1.817,2.536l7.718-5.525l1.814,2.535l-4.05,2.9   l1.816,2.538l4.049-2.899l1.816,2.541l-7.71,5.521l1.817,2.538l7.709-5.521l2.845,3.978l-10.998,7.878L58.98,39.906z"/><polygon points="40.328,29.484 33.711,22.432 35.988,20.294 42.604,27.35 40.328,29.484  "/><polygon points="49.936,29.037 46.815,29.037 46.815,14.707 49.936,14.707 49.936,29.037  "/><polygon points="56.045,28.159 53.777,26.013 62.621,16.649 64.889,18.794 56.045,28.159  "/></g><text x="0" y="115" fill="#000000" font-size="5px" font-weight="bold" font-family="'Helvetica Neue', Helvetica, Arial-Unicode, Arial, Sans-serif">Created by Luis Prado</text><text x="0" y="120" fill="#000000" font-size="5px" font-weight="bold" font-family="'Helvetica Neue', Helvetica, Arial-Unicode, Arial, Sans-serif">from the Noun Project</text></svg>