<svg xmlns="http://www.w3.org/2000/svg" xmlns:xlink="http://www.w3.org/1999/xlink" version="1.1" x="0px" y="0px" viewBox="0 0 100 125" enable-background="new 0 0 100 100" xml:space="preserve"><g><polygon points="40.91,30.963 33.941,23.929 36.149,21.74 43.119,28.771 40.91,30.963  "/><polygon points="50.086,30.485 46.974,30.485 46.974,16.197 50.086,16.197 50.086,30.485  "/><polygon points="56.177,29.61 53.915,27.47 62.732,18.134 64.993,20.273 56.177,29.61  "/><polygon points="42.771,38.103 35.141,39.488 33.379,31.899 25.373,40.493 34.559,49.379 33.116,50.874 23.958,42.013    21.023,45.165 27.02,50.866 25.59,52.369 19.608,46.683 16.784,49.715 26.063,58.484 24.637,59.991 15.368,51.236 12.593,54.217    18.543,59.98 17.101,61.47 11.178,55.733 8.225,58.905 17.572,67.585 16.162,69.104 6.812,60.421 1.038,66.62 15.458,80.058    46.382,46.861  "/><polygon points="94.586,62.398 84.119,69.696 82.933,67.994 93.378,60.708 90.896,57.24 84.153,62.015 82.955,60.322    89.689,55.552 87.296,52.205 76.876,59.573 75.677,57.881 86.089,50.517 83.751,47.247 76.889,51.907 75.722,50.189 82.543,45.558    80.065,42.094 69.622,49.455 68.429,47.759 78.86,40.406 76.348,36.895 69.67,41.766 68.446,40.088 75.143,35.21 71.594,30.25    60.891,32.556 61.312,37.604 53.873,39.356 83.619,80.944 99.641,69.465  "/></g><text x="0" y="115" fill="#000000" font-size="5px" font-weight="bold" font-family="'Helvetica Neue', Helvetica, Arial-Unicode, Arial, Sans-serif">Created by Luis Prado</text><text x="0" y="120" fill="#000000" font-size="5px" font-weight="bold" font-family="'Helvetica Neue', Helvetica, Arial-Unicode, Arial, Sans-serif">from the Noun Project</text></svg>